<svg xmlns="http://www.w3.org/2000/svg" xmlns:xlink="http://www.w3.org/1999/xlink" width="643.533" height="460" viewBox="0 0 482.65 345" xmlns:v="https://vecta.io/nano"><style><![CDATA[.B{fill-rule:evenodd}.C{stroke-miterlimit:3.8637}.D{fill:none}.E{stroke-width:.75}.F{stroke:#000}.G{stroke:#474549}.H{stroke-width:.4}.I{opacity:.69}.J{fill:#474549}.K{font-family:DejaVuSans}.L{stroke-linejoin:round}.M{font-size:12px}.N{fill:#db6168}.O{stroke-width:.8}.P{opacity:.49}.Q{stroke-width:.281}.R{fill:#000004}.S{stroke:#7e817f}.T{stroke-width:1.425}.U{stroke-width:.704}.V{stroke-width:.498}.W{stroke-width:.531}]]></style><defs><clipPath id="A"><path d="M55.799 220.14h483.75v345H55.799z" class="B"/></clipPath><clipPath id="B"><path d="M55.799 220.14h483.75v345H55.799z" class="B"/></clipPath><clipPath id="C"><path d="M55.799 220.14h483.75v345H55.799z" class="B"/></clipPath><clipPath id="D"><path d="M55.799 220.14h483.75v345H55.799z" class="B"/></clipPath><clipPath id="E"><path d="M55.799 220.14h483.75v345H55.799z" class="B"/></clipPath><clipPath id="F"><path d="M55.799 220.14h483.75v345H55.799z" class="B"/></clipPath><clipPath id="G"><path d="M55.799 220.14h483.75v345H55.799z" class="B"/></clipPath><clipPath id="H"><path d="M55.799 220.14h483.75v345H55.799z" class="B"/></clipPath><clipPath id="I"><path d="M55.799 220.14h483.75v345H55.799z" class="B"/></clipPath><clipPath id="J"><path d="M55.799 220.14h483.75v345H55.799z" class="B"/></clipPath><clipPath id="K"><path d="M55.799 220.14h483.75v345H55.799z" class="B"/></clipPath><clipPath id="L"><path d="M55.799 220.14h483.75v345H55.799z" class="B"/></clipPath><clipPath id="M"><path d="M55.799 220.14h483.75v345H55.799z" class="B"/></clipPath><clipPath id="N"><path d="M55.799 220.14h483.75v345H55.799z" class="B"/></clipPath><clipPath id="O"><path d="M55.799 220.14h483.75v345H55.799z" class="B"/></clipPath><clipPath id="P"><path d="M55.799 220.14h483.75v345H55.799z" class="B"/></clipPath><clipPath id="Q"><path d="M55.799 220.14h483.75v345H55.799z" class="B"/></clipPath><clipPath id="R"><path d="M55.799 220.14h483.75v345H55.799z" class="B"/></clipPath><clipPath id="S"><path d="M55.799 220.14h483.75v345H55.799z" class="B"/></clipPath><clipPath id="T"><path d="M55.799 220.14h483.75v345H55.799z" class="B"/></clipPath><clipPath id="U"><path d="M55.799 220.14h483.75v345H55.799z" class="B"/></clipPath><clipPath id="V"><path d="M55.799 220.14h483.75v345H55.799z" class="B"/></clipPath><clipPath id="W"><path d="M55.799 220.14h483.75v345H55.799z" class="B"/></clipPath><clipPath id="X"><path d="M55.799 220.14h483.75v345H55.799z" class="B"/></clipPath><clipPath id="Y"><path d="M55.799 220.14h483.75v345H55.799z" class="B"/></clipPath><clipPath id="Z"><path d="M55.799 220.14h483.75v345H55.799z" class="B"/></clipPath><clipPath id="a"><path d="M55.799 220.14h483.75v345H55.799z" class="B"/></clipPath><clipPath id="b"><path d="M55.799 220.14h483.75v345H55.799z" class="B"/></clipPath><clipPath id="c"><path d="M55.799 220.14h483.75v345H55.799z" class="B"/></clipPath><clipPath id="d"><path d="M55.799 220.14h483.75v345H55.799z" class="B"/></clipPath><clipPath id="e"><path d="M55.799 220.14h483.75v345H55.799z" class="B"/></clipPath><clipPath id="f"><path d="M55.799 220.14h483.75v345H55.799z" class="B"/></clipPath><clipPath id="g"><path d="M55.799 220.14h483.75v345H55.799z" class="B"/></clipPath><clipPath id="h"><path d="M55.799 220.14h483.75v345H55.799z" class="B"/></clipPath><clipPath id="i"><path d="M55.799 220.14h483.75v345H55.799z" class="B"/></clipPath><clipPath id="j"><path d="M55.799 220.14h483.75v345H55.799z" class="B"/></clipPath><clipPath id="k"><path d="M55.799 220.14h483.75v345H55.799z" class="B"/></clipPath><clipPath id="l"><path d="M55.799 220.14h483.75v345H55.799z" class="B"/></clipPath><clipPath id="m"><path d="M55.799 220.14h483.75v345H55.799z" class="B"/></clipPath><clipPath id="n"><path d="M55.799 220.14h483.75v345H55.799z" class="B"/></clipPath><clipPath id="o"><path d="M55.799 220.14h483.75v345H55.799z" class="B"/></clipPath><clipPath id="p"><path d="M55.799 220.14h483.75v345H55.799z" class="B"/></clipPath><clipPath id="q"><path d="M55.799 220.14h483.75v345H55.799z" class="B"/></clipPath><clipPath id="r"><path d="M55.799 220.14h483.75v345H55.799z" class="B"/></clipPath><clipPath id="s"><path d="M55.799 220.14h483.75v345H55.799z" class="B"/></clipPath><clipPath id="t"><path d="M55.799 220.14h483.75v345H55.799z" class="B"/></clipPath><clipPath id="u"><path d="M55.799 220.14h483.75v345H55.799z" class="B"/></clipPath><clipPath id="v"><path d="M55.799 220.14h483.75v345H55.799z" class="B"/></clipPath><clipPath id="w"><path d="M55.799 220.14h483.75v345H55.799z" class="B"/></clipPath><clipPath id="x"><path d="M55.799 220.14h483.75v345H55.799z" class="B"/></clipPath><clipPath id="y"><path d="M55.799 220.14h483.75v345H55.799z" class="B"/></clipPath><clipPath id="z"><path d="M55.799 220.14h483.75v345H55.799z" class="B"/></clipPath><clipPath id="AA"><path d="M55.799 220.14h483.75v345H55.799z" class="B"/></clipPath><clipPath id="AB"><path d="M55.799 220.14h483.75v345H55.799z" class="B"/></clipPath><clipPath id="AC"><path d="M55.799 220.14h483.75v345H55.799z" class="B"/></clipPath><clipPath id="AD"><path d="M55.799 220.14h483.75v345H55.799z" class="B"/></clipPath><clipPath id="AE"><path d="M55.799 220.14h483.75v345H55.799z" class="B"/></clipPath><clipPath id="AF"><path d="M55.799 220.14h483.75v345H55.799z" class="B"/></clipPath><clipPath id="AG"><path d="M55.799 220.14h483.75v345H55.799z" class="B"/></clipPath><clipPath id="AH"><path d="M55.799 220.14h483.75v345H55.799z" class="B"/></clipPath><clipPath id="AI"><path d="M55.799 220.14h483.75v345H55.799z" class="B"/></clipPath><clipPath id="AJ"><path d="M55.799 220.14h483.75v345H55.799z" class="B"/></clipPath><clipPath id="AK"><path d="M55.799 220.14h483.75v345H55.799z" class="B"/></clipPath><clipPath id="AL"><path d="M55.799 220.14h483.75v345H55.799z" class="B"/></clipPath><clipPath id="AM"><path d="M55.799 220.14h483.75v345H55.799z" class="B"/></clipPath><clipPath id="AN"><path d="M55.799 220.14h483.75v345H55.799z" class="B"/></clipPath><clipPath id="AO"><path d="M55.799 220.14h483.75v345H55.799z" class="B"/></clipPath><clipPath id="AP"><path d="M55.799 220.14h483.75v345H55.799z" class="B"/></clipPath><clipPath id="AQ"><path d="M55.799 220.14h483.75v345H55.799z" class="B"/></clipPath><clipPath id="AR"><path d="M55.799 220.14h483.75v345H55.799z" class="B"/></clipPath><clipPath id="AS"><path d="M55.799 220.14h483.75v345H55.799z" class="B"/></clipPath><clipPath id="AT"><path d="M55.799 220.14h483.75v345H55.799z" class="B"/></clipPath><clipPath id="AU"><path d="M55.799 220.14h483.75v345H55.799z" class="B"/></clipPath><clipPath id="AV"><path d="M55.799 220.14h483.75v345H55.799z" class="B"/></clipPath><clipPath id="AW"><path d="M55.799 220.14h483.75v345H55.799z" class="B"/></clipPath><clipPath id="AX"><path d="M55.799 220.14h483.75v345H55.799z" class="B"/></clipPath><clipPath id="AY"><path d="M55.799 220.14h483.75v345H55.799z" class="B"/></clipPath><clipPath id="AZ"><path d="M55.799 220.14h483.75v345H55.799z" class="B"/></clipPath><clipPath id="Aa"><path d="M55.799 220.14h483.75v345H55.799z" class="B"/></clipPath><clipPath id="Ab"><path d="M55.799 220.14h483.75v345H55.799z" class="B"/></clipPath><clipPath id="Ac"><path d="M55.799 220.14h483.75v345H55.799z" class="B"/></clipPath><clipPath id="Ad"><path d="M55.799 220.14h483.75v345H55.799z" class="B"/></clipPath><clipPath id="Ae"><path d="M55.799 220.14h483.75v345H55.799z" class="B"/></clipPath><clipPath id="Af"><path d="M55.799 220.14h483.75v345H55.799z" class="B"/></clipPath><clipPath id="Ag"><path d="M55.799 220.14h483.75v345H55.799z" class="B"/></clipPath><clipPath id="Ah"><path d="M55.799 220.14h483.75v345H55.799z" class="B"/></clipPath><clipPath id="Ai"><path d="M55.799 220.14h483.75v345H55.799z" class="B"/></clipPath><clipPath id="Aj"><path d="M55.799 220.14h483.75v345H55.799z" class="B"/></clipPath><clipPath id="Ak"><path d="M55.799 220.14h483.75v345H55.799z" class="B"/></clipPath><clipPath id="Al"><path d="M55.799 220.14h483.75v345H55.799z" class="B"/></clipPath><clipPath id="Am"><path d="M55.799 220.14h483.75v345H55.799z" class="B"/></clipPath><clipPath id="An"><path d="M55.799 220.14h483.75v345H55.799z" class="B"/></clipPath><clipPath id="Ao"><path d="M55.799 220.14h483.75v345H55.799z" class="B"/></clipPath><clipPath id="Ap"><path d="M55.799 220.14h483.75v345H55.799z" class="B"/></clipPath><clipPath id="Aq"><path d="M55.799 220.14h483.75v345H55.799z" class="B"/></clipPath><clipPath id="Ar"><path d="M55.799 220.14h483.75v345H55.799z" class="B"/></clipPath><clipPath id="As"><path d="M55.799 220.14h483.75v345H55.799z" class="B"/></clipPath><clipPath id="At"><path d="M55.799 220.14h483.75v345H55.799z" class="B"/></clipPath><clipPath id="Au"><path d="M55.799 220.14h483.75v345H55.799z" class="B"/></clipPath><clipPath id="Av"><path d="M55.799 220.14h483.75v345H55.799z" class="B"/></clipPath><clipPath id="Aw"><path d="M55.799 220.14h483.75v345H55.799z" class="B"/></clipPath><clipPath id="Ax"><path d="M55.799 220.14h483.75v345H55.799z" class="B"/></clipPath><clipPath id="Ay"><path d="M55.799 220.14h483.75v345H55.799z" class="B"/></clipPath><clipPath id="Az"><path d="M55.799 220.14h483.75v345H55.799z" class="B"/></clipPath><clipPath id="BA"><path d="M55.799 220.14h483.75v345H55.799z" class="B"/></clipPath><clipPath id="BB"><path d="M55.799 220.14h483.75v345H55.799z" class="B"/></clipPath><clipPath id="BC"><path d="M55.799 220.14h483.75v345H55.799z" class="B"/></clipPath><clipPath id="BD"><path d="M55.799 220.14h483.75v345H55.799z" class="B"/></clipPath><clipPath id="BE"><path d="M55.799 220.14h483.75v345H55.799z" class="B"/></clipPath><clipPath id="BF"><path d="M55.799 220.14h483.75v345H55.799z" class="B"/></clipPath><clipPath id="BG"><path d="M55.799 220.14h483.75v345H55.799z" class="B"/></clipPath><clipPath id="BH"><path d="M55.799 220.14h483.75v345H55.799z" class="B"/></clipPath><clipPath id="BI"><path d="M55.799 220.14h483.75v345H55.799z" class="B"/></clipPath><clipPath id="BJ"><path d="M55.799 220.14h483.75v345H55.799z" class="B"/></clipPath><clipPath id="BK"><path d="M55.799 220.14h483.75v345H55.799z" class="B"/></clipPath><clipPath id="BL"><path d="M55.799 220.14h483.75v345H55.799z" class="B"/></clipPath><clipPath id="BM"><path d="M55.799 220.14h483.75v345H55.799z" class="B"/></clipPath><clipPath id="BN"><path d="M55.799 220.14h483.75v345H55.799z" class="B"/></clipPath><clipPath id="BO"><path d="M55.799 220.14h483.75v345H55.799z" class="B"/></clipPath><clipPath id="BP"><path d="M55.799 220.14h483.75v345H55.799z" class="B"/></clipPath><clipPath id="BQ"><path d="M55.799 220.14h483.75v345H55.799z" class="B"/></clipPath><clipPath id="BR"><path d="M55.799 220.14h483.75v345H55.799z" class="B"/></clipPath><clipPath id="BS"><path d="M55.799 220.14h483.75v345H55.799z" class="B"/></clipPath><clipPath id="BT"><path d="M55.799 220.14h483.75v345H55.799z" class="B"/></clipPath><clipPath id="BU"><path d="M55.799 220.14h483.75v345H55.799z" class="B"/></clipPath><clipPath id="BV"><path d="M55.799 220.14h483.75v345H55.799z" class="B"/></clipPath><clipPath id="BW"><path d="M55.799 220.14h483.75v345H55.799z" class="B"/></clipPath><clipPath id="BX"><path d="M55.799 220.14h483.75v345H55.799z" class="B"/></clipPath><clipPath id="BY"><path d="M55.799 220.14h483.75v345H55.799z" class="B"/></clipPath><clipPath id="BZ"><path d="M55.799 220.14h483.75v345H55.799z" class="B"/></clipPath><clipPath id="Ba"><path d="M55.799 220.14h483.75v345H55.799z" class="B"/></clipPath><clipPath id="Bb"><path d="M55.799 220.14h483.75v345H55.799z" class="B"/></clipPath><clipPath id="Bc"><path d="M55.799 220.14h483.75v345H55.799z" class="B"/></clipPath><clipPath id="Bd"><path d="M55.799 220.14h483.75v345H55.799z" class="B"/></clipPath><clipPath id="Be"><path d="M55.799 220.14h483.75v345H55.799z" class="B"/></clipPath><clipPath id="Bf"><path d="M55.799 220.14h483.75v345H55.799z" class="B"/></clipPath><clipPath id="Bg"><path d="M55.799 220.14h483.75v345H55.799z" class="B"/></clipPath><clipPath id="Bh"><path d="M55.799 220.14h483.75v345H55.799z" class="B"/></clipPath><clipPath id="Bi"><path d="M55.799 220.14h483.75v345H55.799z" class="B"/></clipPath><clipPath id="Bj"><path d="M55.799 220.14h483.75v345H55.799z" class="B"/></clipPath><clipPath id="Bk"><path d="M55.799 220.14h483.75v345H55.799z" class="B"/></clipPath><clipPath id="Bl"><path d="M55.799 220.14h483.75v345H55.799z" class="B"/></clipPath><clipPath id="Bm"><path d="M55.799 220.14h483.75v345H55.799z" class="B"/></clipPath><clipPath id="Bn"><path d="M55.799 220.14h483.75v345H55.799z" class="B"/></clipPath><clipPath id="Bo"><path d="M55.799 220.14h483.75v345H55.799z" class="B"/></clipPath><clipPath id="Bp"><path d="M55.799 220.14h483.75v345H55.799z" class="B"/></clipPath><clipPath id="Bq"><path d="M55.799 220.14h483.75v345H55.799z" class="B"/></clipPath><clipPath id="Br"><path d="M55.799 220.14h483.75v345H55.799z" class="B"/></clipPath><clipPath id="Bs"><path d="M55.799 220.14h483.75v345H55.799z" class="B"/></clipPath><clipPath id="Bt"><path d="M55.799 220.14h483.75v345H55.799z" class="B"/></clipPath><clipPath id="Bu"><path d="M55.799 220.14h483.75v345H55.799z" class="B"/></clipPath><clipPath id="Bv"><path d="M55.799 220.14h483.75v345H55.799z" class="B"/></clipPath><clipPath id="Bw"><path d="M55.799 220.14h483.75v345H55.799z" class="B"/></clipPath><clipPath id="Bx"><path d="M55.799 220.14h483.75v345H55.799z" class="B"/></clipPath><clipPath id="By"><path d="M55.799 220.14h483.75v345H55.799z" class="B"/></clipPath><clipPath id="Bz"><path d="M55.799 220.14h483.75v345H55.799z" class="B"/></clipPath><clipPath id="CA"><path d="M55.799 220.14h483.75v345H55.799z" class="B"/></clipPath><clipPath id="CB"><path d="M55.799 220.14h483.75v345H55.799z" class="B"/></clipPath><clipPath id="CC"><path d="M55.799 220.14h483.75v345H55.799z" class="B"/></clipPath><clipPath id="CD"><path d="M55.799 220.14h483.75v345H55.799z" class="B"/></clipPath><clipPath id="CE"><path d="M55.799 220.14h483.75v345H55.799z" class="B"/></clipPath><clipPath id="CF"><path d="M55.799 220.14h483.75v345H55.799z" class="B"/></clipPath><clipPath id="CG"><path d="M55.799 220.14h483.75v345H55.799z" class="B"/></clipPath><clipPath id="CH"><path d="M55.799 220.14h483.75v345H55.799z" class="B"/></clipPath><clipPath id="CI"><path d="M55.799 220.14h483.75v345H55.799z" class="B"/></clipPath><clipPath id="CJ"><path d="M55.799 220.14h483.75v345H55.799z" class="B"/></clipPath><clipPath id="CK"><path d="M55.799 220.14h483.75v345H55.799z" class="B"/></clipPath><clipPath id="CL"><path d="M55.799 220.14h483.75v345H55.799z" class="B"/></clipPath><clipPath id="CM"><path d="m273.05 532.74h41.8v18.301h-41.8z" class="B"/></clipPath><clipPath id="CN"><path d="M55.799 220.14h483.75v345H55.799z" class="B"/></clipPath><clipPath id="CO"><path d="M55.799 220.14h483.75v345H55.799z" class="B"/></clipPath><path id="CP" d="m194.85 282.55-1.5 1.5 5.25-1.5-5.25-1.5z"/></defs><path fill="#fff" d="M0 0h482.65v345H0z" paint-order="markers stroke fill"/><g class="B"><g transform="matrix(1 0 0 -1 -56.898 565.14)"><path d="M100.6 256.89h26.55c6.25 0 11.35 5.05 11.35 11.35v233.8c0 6.3-5.1 11.35-11.35 11.35H74c-6.25 0-11.35-5.05-11.35-11.35v-233.8c0-6.3 5.1-11.35 11.35-11.35z" clip-path="url(#Bx)" fill="#9fc2bf" class="P"/><path d="m319.85 256.89h35.4c6.25 0 11.35 5.05 11.35 11.35v233.8c0 6.3-5.1 11.35-11.35 11.35h-70.8c-6.25 0-11.35-5.05-11.35-11.35v-233.8c0-6.3 5.1-11.35 11.35-11.35z" clip-path="url(#By)" fill="#b5c29d" class="P"/><path d="M429.65 256.89h33.7c6.25 0 11.35 5.05 11.35 11.35v233.8c0 6.3-5.1 11.35-11.35 11.35H396c-6.25 0-11.35-5.05-11.35-11.35v-233.8c0-6.3 5.1-11.35 11.35-11.35z" clip-path="url(#Bo)" fill="#d6c2bf" class="P"/><path d="M209.15 513.39c-2.2-1.35-4.5-2.95-5.75-4.7-1.7-2.25-2.75-6.45-3.35-9.75v-98.35c0-7.25-5.9-13.1-13.15-13.1h-17.75c-7.25 0-13.15 5.85-13.15 13.1V268.24c0-6.3 5.1-11.35 11.4-11.35h76.45c6.25 0 11.35 5.05 11.35 11.35v233.8c0 6.3-5.1 11.35-11.35 11.35z" clip-path="url(#Bn)" fill="#b5a0bf" class="P"/><path d="M174.25 551.24c-7.65 0-14.1-4.45-16.05-10.5-.4-.85-.65-1.8-.65-2.8v-140.1c0-3.8 3.1-6.8 6.95-6.8h17.65c3.85 0 6.95 3 6.95 6.8v124.6h292.6v-.65c5.65-1 9.9-5.9 9.9-11.8v-247.9c0-1.1-.15-2.15-.45-3.2 1.2-.3 2.4-.5 3.7-.5h26.05c7.25 0 13.1 5.7 13.1 12.8v262.45c.3 1 .45 2.1.45 3.2 0 7.95-7.45 14.4-16.7 14.4z" clip-path="url(#CB)" fill="#b5c2bf" class="P"/></g><g class="N"><g transform="matrix(1 0 0 -1 -56.898 565.14)"><path d="m96.85 426.19h-26.9v60h53.75v-60z" clip-path="url(#Bk)" class="I"/><path d="M212.35 405.29H180.7v77.05H244v-77.05z" clip-path="url(#Bq)" class="I"/><path d="m426.25 341.39h-24.9v59.85h49.85v-59.85z" clip-path="url(#Br)" class="I"/><path d="m264.35 446.64h-8.05v44.05h16.05v-44.05z" clip-path="url(#Bl)" class="I"/><path d="m264.35 400.14h-8.05v44h16.05v-44z" clip-path="url(#CC)" class="I"/></g><path d="M207.45 267h-8.05v-44h16.05v44zm0 38.15h-8.05v-30.4h16.05v30.4z" class="I"/><g transform="matrix(1 0 0 -1 -56.898 565.14)"><path d="m148.05 348.19h-8v44h16v-44z" clip-path="url(#Bu)" class="I"/><path d="m375.7 425.89h-8.05v44h16.05v-44z" clip-path="url(#CF)" class="I"/><path d="m375.7 349.04h-8.05v44h16.05v-44z" clip-path="url(#Bz)" class="I"/><path d="m483.65 349.04h-8v44h16v-44z" clip-path="url(#CA)" class="I"/><path d="m483.65 425.49h-8v44h16v-44z" clip-path="url(#Bv)" class="I"/></g><path d="M318.8 304.65h-8.05V274.2h16.05v30.45z" class="I"/><g transform="matrix(1 0 0 -1 -56.898 565.14)"><path d="m483.65 260.69h-8v30.45h16v-30.45z" clip-path="url(#Bw)" class="I"/><path d="M301.15 430.84v-42.2l8.95 5.5-.2 30.4z" clip-path="url(#Bp)" class="I"/><path d="M508.85 456.19v-42.2l8.9 5.5-.2 30.4z" clip-path="url(#Bs)" class="I"/><path d="m89.85 366.34h-20.9v18.25h41.8v-18.25z" clip-path="url(#Bt)" class="I"/><path d="M97.15 416.44v-21.9l18.85 2.85-.4 15.8z" clip-path="url(#CD)" class="I"/></g><path d="M159 253.75h-19.6V235.5h39.15v18.25z" class="I"/><g transform="matrix(1 0 0 -1 -56.898 565.14)"><path d="M316.05 486.84v-35.3l8.3-7.7-8.1-8.75v-33.25l33.25 21.1-.2 42z" clip-path="url(#CE)" class="I"/><path d="M249.05 358.54c0-2.05-1.65-4.1-4.8-5.9-3.15-1.85-7.7-3.3-13.15-4.35s-11.65-1.6-17.95-1.6-12.5.55-17.95 1.6-10 2.5-13.15 4.35c-3.15 1.8-4.8 3.85-4.8 5.9 0 2.1 1.65 4.15 4.8 5.95s7.7 3.3 13.15 4.35c5.45 1 11.65 1.55 17.95 1.55s12.5-.55 17.95-1.55c5.45-1.05 10-2.55 13.15-4.35s4.8-3.85 4.8-5.95z" clip-path="url(#Bm)" class="I"/></g></g></g><g class="K"><g class="M"><text x="-56.898" y="565.139" xml:space="preserve"><tspan x="15.102 25.494 32.886 44.574 51.87 56.766" y="113.05">Memory</tspan></text><text x="-56.898" y="565.139" xml:space="preserve"><tspan x="127.702 135.502 142.894 150.49 153.79 160.078 164.782 172.174 177.07 180.874" y="118.35">Register  </tspan></text><text x="-56.898" y="565.139" xml:space="preserve"><tspan x="144.202 150.202 153.502 156.802" y="133.55">File</tspan></text><text x="-56.898" y="565.139" xml:space="preserve"><tspan x="265.802 273.998 280.094" y="117.85">ALU</tspan><tspan x="203.302" y="99.45">A</tspan><tspan x="203.202" y="145.75">B</tspan></text><text transform="rotate(270)" x="-565.139" y="-56.898" xml:space="preserve"><tspan x="-258.25" y="211.802">I</tspan><tspan x="-254.45" y="211.802">M</tspan><tspan x="-243.95" y="211.802">M</tspan></text></g><text transform="matrix(0 -.89675 1.1151 0 0 0)" x="-630.208" y="-51.023" xml:space="preserve" font-size="10.761"><tspan x="-337.162" y="189.934">C</tspan><tspan x="-329.691" y="189.934">T</tspan><tspan x="-322.888" y="189.934">R</tspan><tspan x="-315.417" y="189.934">L</tspan><tspan x="-337.608" y="289.832">C</tspan><tspan x="-330.137" y="289.832">T</tspan><tspan x="-323.334" y="289.832">R</tspan><tspan x="-315.863" y="289.832">L</tspan><tspan x="-337.608" y="386.591">C</tspan><tspan x="-330.137" y="386.591">T</tspan><tspan x="-323.334" y="386.591">R</tspan><tspan x="-315.863" y="386.591">L</tspan></text><g class="M"><text x="-56.898" y="565.139" xml:space="preserve"><tspan x="314.102" y="121.65">D</tspan><tspan x="314.502" y="198.15">B</tspan><tspan x="422.002" y="120.65">D</tspan><tspan x="421.502" y="197.95">M</tspan></text><text x="-56.898" y="565.139" xml:space="preserve"><tspan x="24.802 32.002" y="194.45">PC</tspan></text></g><text x="-56.898" y="565.139" font-size="10.8" xml:space="preserve"><tspan x="41.702 50.699" y="163.95">+1</tspan></text><text transform="rotate(270)" x="-565.139" y="-56.898" xml:space="preserve" class="M"><tspan x="-208.05" y="95.602">I</tspan><tspan x="-204.25" y="95.602">N</tspan><tspan x="-195.25" y="95.602">S</tspan><tspan x="-187.75" y="95.602">T</tspan></text><text x="-56.898" y="565.139" font-size="8.9" xml:space="preserve"><tspan x="357.002 363.09 369.979 376.867" y="172.95">ADDR</tspan></text><text x="-56.898" y="565.139" xml:space="preserve" class="M"><tspan x="344.402 354.794 362.186 373.874 381.17 386.066" y="218.45">Memory</tspan><tspan x="350.902" y="196.95">d</tspan></text><text x="-56.898" y="565.139" font-size="7.8" xml:space="preserve"><tspan x="358.802 360.994" y="197.65">in</tspan></text><text x="-56.898" y="565.139" xml:space="preserve" class="M"><tspan x="379.002" y="197.15">d</tspan></text><text x="-56.898" y="565.139" font-size="7.8" xml:space="preserve"><tspan x="384.202 388.992 393.89" y="197.85">out</tspan></text><g class="M"><text x="-56.898" y="565.139" xml:space="preserve"><tspan x="9.602 13.106 20.702 26.99 31.694 36.59 44.186 50.774 55.478 58.778 66.074 73.67 77.474" y="286.95">Instruction  </tspan></text><text x="-56.898" y="565.139" xml:space="preserve"><tspan x="27.202 33.406 40.798 45.502 52.09" y="302.15">Fetch</tspan></text><text x="-56.898" y="565.139" xml:space="preserve"><tspan x="114.302 117.806 125.402 131.69 136.394 141.29 148.886 155.474 160.178 163.478 170.774 178.37 182.174" y="285.15">Instruction  </tspan></text><text x="-56.898" y="565.139" xml:space="preserve"><tspan x="125.102 134.306 141.698 148.286 155.582 163.178" y="300.35">Decode</tspan></text><text x="-56.898" y="565.139" xml:space="preserve"><tspan x="238.402 245.986 252.682 260.074 266.662 274.258 278.962" y="291.65">Execute</tspan></text><text x="-56.898" y="565.139" xml:space="preserve"><tspan x="345.702 356.094 363.486 375.174 382.47 387.366" y="291.25">Memory</tspan></text><text x="-56.898" y="565.139" xml:space="preserve"><tspan x="440.002 451.306 456.202 459.502 464.206 471.598" y="285.75">Write </tspan></text><text x="-56.898" y="565.139" xml:space="preserve"><tspan x="443.002 451.198 458.59 465.178" y="300.95">Back</tspan></text></g></g><g transform="matrix(1 0 0 -1 -56.898 565.14)" stroke="#000006" class="C D T"><path d="M264.35 250.99H256v265.05h16.65V250.99z" clip-path="url(#CH)" class="I"/><path d="M375.7 251.09h-8.35v265.05H384V251.09z" clip-path="url(#CI)" class="I"/><path d="m483.65 250.64h-8.3v265.1h16.6v-265.1z" clip-path="url(#CN)" class="I"/></g><g font-size="14" class="K"><text x="-56.898" y="565.139" xml:space="preserve"><tspan x="75.002 79.104 87.196 91.9 96.002" y="327.95">IF/ID</tspan></text><text x="-56.898" y="565.139" xml:space="preserve"><tspan x="187.902 192.004 202.784 207.488 216.294" y="327.95">ID/EX</tspan></text><text x="-56.898" y="565.139" xml:space="preserve"><tspan x="290.702 299.508 309.098 313.802 325.884 334.69" y="327.95">EX/MEM</tspan></text><text x="-56.898" y="565.139" xml:space="preserve"><tspan x="396.002 408.084 416.89 428.972 433.676 447.48" y="327.95">MEM/WB</tspan></text></g><g transform="matrix(1 0 0 -1 -56.898 565.14)" class="C D"><path d="M148.05 250.89h-8.3v265.05h16.6V250.89z" clip-path="url(#CG)" stroke="#000006" class="I T"/><path d="M89.85 384.79l-.2 41" clip-path="url(#Bj)" class="E F"/></g><path transform="matrix(1 0 0 -1 -56.898 565.14)" d="m89.65 418.29 3-3-3 10.5-3-10.5z" clip-path="url(#Bi)" class="B"/><g transform="matrix(1 0 0 -1 -56.898 565.14)" class="C D F"><path d="m89.65 418.29 3-3-3 10.5-3-10.5z" clip-path="url(#Bh)" class="O"/><g class="E"><path d="m118.65 405.09v-64.7" clip-path="url(#Bg)"/><path d="m89.65 339.99v25.55" clip-path="url(#Bf)"/></g></g><g transform="matrix(1 0 0 -1 -56.898 565.14)"><path d="m89.65 358.04 3-3-3 10.5-3-10.5z" clip-path="url(#Be)" class="B"/><g class="C D F"><path d="m89.65 358.04 3-3-3 10.5-3-10.5z" clip-path="url(#Bd)" class="O"/><path d="m124.35 456.59h7.3v-85.15h7.1" clip-path="url(#Bc)" class="E"/></g><path d="m135.75 371.44-1.5-1.5 5.25 1.5-5.25 1.5z" clip-path="url(#Bb)" class="B"/></g><g class="D F C"><g transform="matrix(1 0 0 -1 -56.898 565.14)"><path d="m135.75 371.44-1.5-1.5 5.25 1.5-5.25 1.5z" clip-path="url(#Ba)" class="H"/><path d="M156.6 371.44h7.9l.2-63.9" clip-path="url(#BZ)" class="E"/></g><path d="m108.2 236.7 7.9 8.5h23.1" class="E"/></g><path d="m131.7 245.2-3 3 10.5-3-10.5-3z" class="B"/><g class="C D F"><path d="m131.7 245.2-3 3 10.5-3-10.5-3z" class="O"/><path d="M164.9 358.84l12.15-.4" clip-path="url(#BY)" transform="matrix(1 0 0 -1 -56.898 565.14)" class="E"/></g><path transform="matrix(1 0 0 -1 -56.898 565.14)" d="M173.2 360.39l4.85-1.95-4.95-1.65a3.08 3.08 0 0 1 .1 3.6z" clip-path="url(#BX)" class="B"/><g class="D F"><path transform="matrix(1 0 0 -1 -56.898 565.14)" d="M173.2 360.39l4.85-1.95-4.95-1.65a3.08 3.08 0 0 1 .1 3.6z" clip-path="url(#BW)" class="L Q"/><path transform="matrix(1 0 0 -1 -56.898 565.14)" d="m272.15 470.79h42.9" clip-path="url(#BV)" class="C U"/></g><path transform="matrix(1 0 0 -1 -56.898 565.14)" d="m308 470.79-2.8-2.85 9.85 2.85-9.85 2.8z" clip-path="url(#BU)" class="B"/><g class="C D F"><path transform="matrix(1 0 0 -1 -56.898 565.14)" d="m308 470.79-2.8-2.85 9.85 2.85-9.85 2.8z" clip-path="url(#BT)" stroke-width=".751"/><path transform="matrix(1 0 0 -1 -56.898 565.14)" d="M272.8 422.14l27.95-.2" clip-path="url(#BS)" class="E"/></g><path transform="matrix(1 0 0 -1 -56.898 565.14)" d="m293.25 421.99-3-3 10.5 2.95-10.45 3.05z" clip-path="url(#BR)" class="B"/><g class="C D F"><path transform="matrix(1 0 0 -1 -56.898 565.14)" d="m293.25 421.99-3-3 10.5 2.95-10.45 3.05z" clip-path="url(#BQ)" class="O"/><path transform="matrix(1 0 0 -1 -56.898 565.14)" d="M284.85 421.84v-48.75l81.8.2" clip-path="url(#BP)" stroke-width=".738"/></g><path transform="matrix(1 0 0 -1 -56.898 565.14)" d="m363.7 373.29-1.45-1.5 5.15 1.5-5.15 1.45z" clip-path="url(#BO)" class="B"/><g class="C D F"><path transform="matrix(1 0 0 -1 -56.898 565.14)" d="m363.7 373.29-1.45-1.5 5.15 1.5-5.15 1.45z" clip-path="url(#BN)" stroke-width=".394"/><path transform="matrix(1 0 0 -1 -56.898 565.14)" d="M272.6 320.64l20.45.1.2 76.05h6.7" clip-path="url(#BM)" class="E"/></g><path transform="matrix(1 0 0 -1 -56.898 565.14)" d="M296.05 398.59l4.9-1.8-4.9-1.8c.75 1.05.75 2.5 0 3.6z" clip-path="url(#BL)" class="B"/><g class="D F"><path transform="matrix(1 0 0 -1 -56.898 565.14)" d="M296.05 398.59l4.9-1.8-4.9-1.8c.75 1.05.75 2.5 0 3.6z" clip-path="url(#BK)" class="L Q"/><path transform="matrix(1 0 0 -1 -56.898 565.14)" d="m309.65 414.54h5.85" clip-path="url(#BJ)" stroke-width=".57" class="C"/></g><path transform="matrix(1 0 0 -1 -56.898 565.14)" d="M312.55 415.89l3.75-1.35-3.75-1.4c.6.85.6 1.95 0 2.75z" clip-path="url(#BI)" class="B"/><g class="D F"><path transform="matrix(1 0 0 -1 -56.898 565.14)" d="M312.55 415.89l3.75-1.35-3.75-1.4c.6.85.6 1.95 0 2.75z" clip-path="url(#BH)" stroke-width=".214" class="L"/><path transform="matrix(1 0 0 -1 -56.898 565.14)" d="M384.7 447.69l90.25-.4" clip-path="url(#BG)" class="C E"/></g><path transform="matrix(1 0 0 -1 -56.898 565.14)" d="m471.95 447.29-1.5-1.5 5.25 1.5-5.25 1.5z" clip-path="url(#BF)" class="B"/><g class="C D F"><path transform="matrix(1 0 0 -1 -56.898 565.14)" d="m471.95 447.29-1.5-1.5 5.25 1.5-5.25 1.5z" clip-path="url(#BE)" class="H"/><path transform="matrix(1 0 0 -1 -56.898 565.14)" d="m425.9 447.29v-45.45" clip-path="url(#BD)" class="E"/></g><path transform="matrix(1 0 0 -1 -56.898 565.14)" d="m425.9 409.34-3 3 3-10.5 3 10.5z" clip-path="url(#BC)" class="B"/><g class="C D F"><path transform="matrix(1 0 0 -1 -56.898 565.14)" d="m425.9 409.34-3 3 3-10.5 3 10.5z" clip-path="url(#BB)" class="O"/><path transform="matrix(1 0 0 -1 -56.898 565.14)" d="m383.8 372.84h17.55" clip-path="url(#BA)" stroke-width=".726"/></g><path transform="matrix(1 0 0 -1 -56.898 565.14)" d="M397.55 374.59l4.8-1.75-4.8-1.75c.8 1.05.75 2.45 0 3.5z" clip-path="url(#Az)" class="B"/><g class="D F"><path transform="matrix(1 0 0 -1 -56.898 565.14)" d="M397.55 374.59l4.8-1.75-4.8-1.75c.8 1.05.75 2.45 0 3.5z" clip-path="url(#Ay)" stroke-width=".272" class="L"/><path transform="matrix(1 0 0 -1 -56.898 565.14)" d="m468.3 369.84h6.8" clip-path="url(#Ax)" stroke-width=".57" class="C"/></g><path transform="matrix(1 0 0 -1 -56.898 565.14)" d="m472.8 369.84-1.15-1.15 4 1.15-4 1.15z" clip-path="url(#Aw)" class="B"/><g class="C D F"><path transform="matrix(1 0 0 -1 -56.898 565.14)" d="m472.8 369.84-1.15-1.15 4 1.15-4 1.15z" clip-path="url(#Av)" stroke-width=".304"/><path transform="matrix(1 0 0 -1 -56.898 565.14)" d="m491.35 373.24h6.8v48.8h10.25" clip-path="url(#Au)" stroke-width=".716"/></g><path transform="matrix(1 0 0 -1 -56.898 565.14)" d="M504.65 423.79l4.7-1.7-4.7-1.75c.75 1 .75 2.4 0 3.45z" clip-path="url(#At)" class="B"/><g class="D F"><path transform="matrix(1 0 0 -1 -56.898 565.14)" d="M504.65 423.79l4.7-1.7-4.7-1.75c.75 1 .75 2.4 0 3.45z" clip-path="url(#As)" stroke-width=".268" class="L"/><path transform="matrix(1 0 0 -1 -56.898 565.14)" d="M491.3 448.29l17.15-.2" clip-path="url(#Ar)" class="C E"/></g><path transform="matrix(1 0 0 -1 -56.898 565.14)" d="m505.45 448.14-1.55-1.5 5.3 1.45-5.25 1.55z" clip-path="url(#Aq)" class="B"/><g class="C D F"><path transform="matrix(1 0 0 -1 -56.898 565.14)" d="m505.45 448.14-1.55-1.5 5.3 1.45-5.25 1.55z" clip-path="url(#Ap)" class="H"/><path transform="matrix(1 0 0 -1 -56.898 565.14)" d="M517.55 433.29h7.5l.4 95.1H172.8l.2-96.75 6.9-.2" clip-path="url(#Ao)" class="E"/></g><path transform="matrix(1 0 0 -1 -56.898 565.14)" d="m176.9 431.54-1.55-1.45 5.3 1.35-5.2 1.65z" clip-path="url(#An)" class="B"/><g class="D C"><g transform="matrix(1 0 0 -1 -56.898 565.14)" class="F"><path d="m176.9 431.54-1.55-1.45 5.3 1.35-5.2 1.65z" clip-path="url(#Am)" class="H"/><g class="E"><path d="M89.45 405.49l7.5.2" clip-path="url(#Al)"/><path d="M118.65 405.09l-3.65.2" clip-path="url(#Ak)"/></g></g><path transform="matrix(1 0 0 -1 -56.898 565.14)" d="M183.65 392.49c-.2 1.2-.2 12.75-.2 12.75" clip-path="url(#Aj)" class="E G"/></g><g transform="matrix(1 0 0 -1 -56.898 565.14)"><path d="m183.45 402.24 1.5-1.5-1.5 5.25-1.5-5.25z" clip-path="url(#Ai)" class="B J"/><g class="C D G"><path d="m183.45 402.24 1.5-1.5-1.5 5.25-1.5-5.25z" clip-path="url(#Ah)" class="H"/><path d="M209.3 390.99c-.2 1.2-.2 12.75-.2 12.75" clip-path="url(#Ag)" class="E"/></g><path d="m209.1 400.74 1.5-1.5-1.5 5.25-1.5-5.25z" clip-path="url(#Af)" class="B J"/><g class="C D G"><path d="m209.1 400.74 1.5-1.5-1.5 5.25-1.5-5.25z" clip-path="url(#Ae)" class="H"/><path d="M222.5 390.99c-.2 1.2-.2 12.75-.2 12.75" clip-path="url(#Ad)" class="E"/></g><path d="m222.3 400.74 1.5-1.5-1.5 5.25-1.5-5.25z" clip-path="url(#Ac)" class="B J"/><g class="C D G"><path d="m222.3 400.74 1.5-1.5-1.5 5.25-1.5-5.25z" clip-path="url(#Ab)" class="H"/><path d="M235.25 390.99c-.2 1.2-.2 12.75-.2 12.75" clip-path="url(#Aa)" class="E"/></g><path d="m235.05 400.74 1.5-1.5-1.5 5.25-1.5-5.25z" clip-path="url(#AZ)" class="B J"/><path d="m235.05 400.74 1.5-1.5-1.5 5.25-1.5-5.25z" clip-path="url(#AY)" class="C D G H"/></g><path d="M157.7 267.35c-.25-1.25-.25-12.8-.25-12.8" class="C D E G"/><path d="m157.45 257.55 1.5 1.5-1.5-5.25-1.5 5.25z" class="B J"/><g class="C D G"><path d="m157.45 257.55 1.5 1.5-1.5-5.25-1.5 5.25z" class="H"/><path d="m303.8 380.79v9.25" clip-path="url(#AX)" transform="matrix(1 0 0 -1 -56.898 565.14)" class="E"/></g><path transform="matrix(1 0 0 -1 -56.898 565.14)" d="m303.8 387.04 1.5-1.5-1.5 5.25-1.5-5.25z" clip-path="url(#AW)" class="B J"/><g class="C D G"><path transform="matrix(1 0 0 -1 -56.898 565.14)" d="m303.8 387.04 1.5-1.5-1.5 5.25-1.5-5.25z" clip-path="url(#AV)" class="H"/><path transform="matrix(1 0 0 -1 -56.898 565.14)" d="M330.95 397.89c-.2 1.25-.2 12.8-.2 12.8" clip-path="url(#AU)" class="E"/></g><path transform="matrix(1 0 0 -1 -56.898 565.14)" d="m330.75 407.69 1.5-1.5-1.5 5.25-1.5-5.25z" clip-path="url(#AT)" class="B J"/><g class="C D G"><path transform="matrix(1 0 0 -1 -56.898 565.14)" d="m330.75 407.69 1.5-1.5-1.5 5.25-1.5-5.25z" clip-path="url(#AS)" class="H"/><path transform="matrix(1 0 0 -1 -56.898 565.14)" d="M339.05 403.29c-.2 1.2-.2 12.75-.2 12.75" clip-path="url(#AR)" class="E"/></g><path transform="matrix(1 0 0 -1 -56.898 565.14)" d="m338.85 413.04 1.5-1.5-1.5 5.25-1.5-5.25z" clip-path="url(#AQ)" class="B J"/><g class="C D G"><path transform="matrix(1 0 0 -1 -56.898 565.14)" d="m338.85 413.04 1.5-1.5-1.5 5.25-1.5-5.25z" clip-path="url(#AP)" class="H"/><path d="M368.8 238.1c-.2-1.2-.2-12.75-.2-12.75" class="E"/></g><path d="m368.6 228.35 1.5 1.5-1.5-5.25-1.5 5.25z" class="B J"/><g class="C D G"><path d="m368.6 228.35 1.5 1.5-1.5-5.25-1.5 5.25z" class="H"/><path d="M512.9 403.44c-.2 1.2-.2 12.75-.2 12.75" clip-path="url(#AO)" transform="matrix(1 0 0 -1 -56.898 565.14)" class="E"/></g><path transform="matrix(1 0 0 -1 -56.898 565.14)" d="m512.7 413.19 1.5-1.5-1.5 5.25-1.5-5.25z" clip-path="url(#AN)" class="B J"/><g class="C D G"><path transform="matrix(1 0 0 -1 -56.898 565.14)" d="m512.7 413.19 1.5-1.5-1.5 5.25-1.5-5.25z" clip-path="url(#AM)" class="H"/><path d="M185.05 282.75c1.2-.2 12.8-.2 12.8-.2" class="E"/></g><use xlink:href="#CP" class="B J"/><g class="C D G"><use xlink:href="#CP" class="H"/><path d="M185.05 292.05c1.2-.2 12.8-.2 12.8-.2" class="E"/></g><use xlink:href="#CP" y="9.3" class="B J"/><g class="C D G"><use xlink:href="#CP" y="9.3" class="H"/><path d="M185.05 300.2c1.2-.2 12.8-.2 12.8-.2" class="E"/></g><use xlink:href="#CP" y="17.45" class="B J"/><g class="C D G"><use xlink:href="#CP" y="17.45" class="H"/><path d="M296.2 284.15c1.2-.2 12.75-.2 12.75-.2" class="E"/></g><use xlink:href="#CP" x="111.1" y="1.4" class="B J"/><g class="C D G"><use xlink:href="#CP" x="111.1" y="1.4" class="H"/><path d="M296.2 293.5c1.2-.2 12.75-.2 12.75-.2" class="E"/></g><use xlink:href="#CP" x="111.1" y="10.75" class="B J"/><g class="C D G"><use xlink:href="#CP" x="111.1" y="10.75" class="H"/><path d="M296.2 301.6c1.2-.2 12.75-.2 12.75-.2" class="E"/></g><use xlink:href="#CP" x="111.1" y="18.85" class="B J"/><g class="C D G"><use xlink:href="#CP" x="111.1" y="18.85" class="H"/><path d="M403.85 282.95c1.25-.2 12.8-.2 12.8-.2" class="E"/></g><use xlink:href="#CP" x="218.8" y="0.2" class="B J"/><g class="C D G"><use xlink:href="#CP" x="218.8" y="0.2" class="H"/><path d="M403.85 292.25c1.25-.2 12.8-.2 12.8-.2" class="E"/></g><use xlink:href="#CP" x="218.8" y="9.5" class="B J"/><g class="C D G"><use xlink:href="#CP" x="218.8" y="9.5" class="H"/><path d="M403.85 300.4c1.25-.2 12.8-.2 12.8-.2" class="E"/></g><use xlink:href="#CP" x="218.8" y="17.65" class="B J"/><use xlink:href="#CP" x="218.8" y="17.65" class="C D G H"/><g transform="matrix(1 0 0 -1 -56.898 565.14)" class="B R"><path d="M91.85 405.54c0-.35-.1-.7-.3-1a1.47 1.47 0 0 0-.7-.75c-.35-.2-.65-.25-1-.25-.4 0-.7.05-1.05.25a1.47 1.47 0 0 0-.7.75c-.2.3-.3.65-.3 1s.1.7.3 1a1.58 1.58 0 0 0 .7.7c.35.2.65.3 1.05.3.35 0 .65-.1 1-.3a1.58 1.58 0 0 0 .7-.7c.2-.3.3-.65.3-1z" clip-path="url(#AL)"/><path d="M427.8 447.69c0-.35-.1-.7-.25-1a2.68 2.68 0 0 0-.75-.75c-.3-.15-.65-.25-1-.25s-.7.1-1 .25a2.68 2.68 0 0 0-.75.75c-.15.3-.25.65-.25 1s.1.7.25 1a2.68 2.68 0 0 0 .75.75c.3.15.65.25 1 .25s.7-.1 1-.25a2.68 2.68 0 0 0 .75-.75c.15-.3.25-.65.25-1z" clip-path="url(#AK)"/><path d="M286.65 421.74c0-.35-.1-.7-.25-1a2.68 2.68 0 0 0-.75-.75c-.3-.15-.65-.25-1-.25s-.7.1-1 .25a2.68 2.68 0 0 0-.75.75c-.15.3-.25.65-.25 1s.1.7.25 1a2.68 2.68 0 0 0 .75.75c.3.15.65.25 1 .25s.7-.1 1-.25a2.68 2.68 0 0 0 .75-.75c.15-.3.25-.65.25-1z" clip-path="url(#AJ)"/></g><text x="-56.898" y="565.139" xml:space="preserve" class="K M"><tspan x="132.702 141.09 148.386 155.982 160.686 165.39 172.686" y="211.55">Control</tspan></text><text x="-56.898" y="565.139" font-size="10" xml:space="preserve" class="K"><tspan x="141.502 147.802 153.702 157.602 163.792 170.092" y="248.75">Extend</tspan></text><g transform="matrix(1 0 0 -1 -56.898 565.14)"><path d="m425.9 447.34-0.25 116.6" clip-path="url(#AI)" stroke-width=".73" class="C D F"/><path d="m422.45 556.14 3.2 8.75 3.25-8.75c-1.9 1.4-4.5 1.4-6.45 0z" clip-path="url(#AH)" class="B"/></g><g transform="matrix(1 0 0 -1 -56.898 565.14)" class="D F"><path d="m422.45 556.14 3.2 8.75 3.25-8.75c-1.9 1.4-4.5 1.4-6.45 0z" clip-path="url(#AG)" stroke-width=".502" class="L"/><g class="C E"><path d="M450.6 223.14v97.5l2.7.75v41.25" clip-path="url(#AF)"/><path d="m392.4 372.84v-52.2h18.05v-97.5" clip-path="url(#AE)"/></g></g><path d="m353.55 334.5-3-3 3 10.5 3-10.5z" class="B"/><g class="D C"><g class="F"><path d="m353.55 334.5-3-3 3 10.5 3-10.5z" class="O"/><path transform="matrix(1 0 0 -1 -56.898 565.14)" d="M297.55 248.64H526.4c6.15 0 11.1 4.95 11.1 11.1v283.6c0 6.15-4.95 11.1-11.1 11.1H68.7c-6.15 0-11.1-4.95-11.1-11.1v-283.6c0-6.15 4.95-11.1 11.1-11.1z" clip-path="url(#AD)" stroke-width="1.405"/></g><path d="M368.75 310.8c.2 1.25.2 12.8.2 12.8" class="E G"/></g><path d="m368.95 320.6-1.5-1.5 1.5 5.25 1.5-5.25z" class="B J"/><path d="m368.95 320.6-1.5-1.5 1.5 5.25 1.5-5.25z" class="C D G H"/><path transform="matrix(1 0 0 -1 -56.898 565.14)" d="m449.7 414.19h-18.95v23.95h37.95v-23.95z" clip-path="url(#CL)" class="B I N"/><text x="-56.898" y="565.139" font-size="8" xml:space="preserve" class="K"><tspan x="379.902 385.398 391.59 397.782 403.374" y="134.45">ADDR </tspan></text><text x="-56.898" y="565.139" font-size="8" xml:space="preserve" class="K"><tspan x="373.502 379.694 384.59 388.982 393.878 398.974 401.174 406.27" y="149.65">Decoding</tspan></text><g transform="matrix(1 0 0 -1 -56.898 565.14)"><path d="M451.2 447.34c.2-1.1 0-8.05 0-8.05" clip-path="url(#AC)" stroke-width=".92" class="C D G"/><path d="m451.3 442.94-1.8 1.9 1.65-6.5 2.05 6.4z" clip-path="url(#AB)" class="B J"/><g class="C D"><path d="m451.3 442.94-1.8 1.9 1.65-6.5 2.05 6.4z" clip-path="url(#AA)" stroke-width=".49" class="G"/><path d="M464.1 414.49c.2-1.65 0-25.6 0-25.6" clip-path="url(#z)" stroke-width=".869" class="S"/></g><path d="m464.15 392.34-1.75 1.8 1.7-6.1 1.8 6.05z" clip-path="url(#y)" fill="#7e817f" class="B"/><g class="C D"><path d="m464.15 392.34-1.75 1.8 1.7-6.1 1.8 6.05z" clip-path="url(#x)" stroke-width=".463" class="S"/><path d="m451.2 372.84h9.6" clip-path="url(#w)" stroke-width="1.106" class="F"/></g><path d="m455 375.49 7.25-2.65-7.25-2.65c1.15 1.55 1.15 3.7 0 5.3z" clip-path="url(#v)" class="B"/><path d="m455 375.49 7.25-2.65-7.25-2.65c1.15 1.55 1.15 3.7 0 5.3z" clip-path="url(#u)" stroke-width=".415" class="D F L"/></g><path d="M377 304.8c.2 1.25 0 19.1 0 19.1" class="C D E S"/><path d="m377.05 320.9-1.5-1.5 1.45 5.25 1.55-5.25z" class="B J"/><path d="m377.05 320.9-1.5-1.5 1.45 5.25 1.55-5.25z" class="C D G H"/><path transform="matrix(1 0 0 -1 -56.898 565.14)" d="M343.85 499.44c0-2.15-.55-4.3-1.6-6.2-1.1-1.85-2.6-3.4-4.45-4.5s-3.95-1.65-6.05-1.65c-2.15 0-4.25.55-6.05 1.65-1.85 1.1-3.4 2.65-4.45 4.5-1.05 1.9-1.65 4.05-1.65 6.2 0 2.2.6 4.3 1.65 6.2s2.6 3.45 4.45 4.55c1.8 1.05 3.9 1.65 6.05 1.65 2.1 0 4.2-.6 6.05-1.65 1.85-1.1 3.35-2.65 4.45-4.55 1.05-1.9 1.6-4 1.6-6.2z" clip-path="url(#CJ)" class="B I N"/><text transform="scale(.87262 1.146)" x="-65.203" y="493.15" font-size="9.512" xml:space="preserve" class="K"><tspan x="313.084" y="60.603">*</tspan></text><g transform="matrix(1 0 0 -1 -56.898 565.14)"><path d="m277.55 470.79v33.75h41.25" clip-path="url(#t)" class="C D E F"/><path d="m315.8 504.54-1.5-1.5 5.25 1.5-5.25 1.5z" clip-path="url(#s)" class="B"/><g class="C D F"><path d="m315.8 504.54-1.5-1.5 5.25 1.5-5.25 1.5z" clip-path="url(#r)" class="H"/><path d="M284.85 421.84l.2 71.45h37.5" clip-path="url(#q)" class="E"/></g><path d="m319.55 493.29-1.5-1.5 5.25 1.5-5.25 1.5z" clip-path="url(#p)" class="B"/><path d="m319.55 493.29-1.5-1.5 5.25 1.5-5.25 1.5z" clip-path="url(#o)" class="C D F H"/><g class="B"><path d="M279.15 470.49c0-.35-.1-.7-.25-1a2.68 2.68 0 0 0-.75-.75c-.3-.15-.65-.25-1-.25s-.7.1-1 .25a2.68 2.68 0 0 0-.75.75c-.15.3-.25.65-.25 1s.1.7.25 1a2.68 2.68 0 0 0 .75.75c.3.15.65.25 1 .25s.7-.1 1-.25a2.68 2.68 0 0 0 .75-.75c.15-.3.25-.65.25-1z" clip-path="url(#n)" class="R"/><path d="M353.05 464.59v-42.2l8.9 5.5-.2 30.4z" clip-path="url(#CO)" class="I N"/></g><path d="m361.85 444.54h4.2" clip-path="url(#m)" stroke-width=".481" class="C D F"/><path d="M363.55 445.69l3.15-1.15-3.15-1.15c.5.65.5 1.6 0 2.3z" clip-path="url(#l)" class="B"/><g class="D"><path d="M363.55 445.69l3.15-1.15-3.15-1.15c.5.65.5 1.6 0 2.3z" clip-path="url(#k)" stroke-width=".18" class="F L"/><path d="m356.3 414.54v9.25" clip-path="url(#j)" class="C E G"/></g><path d="m356.3 420.79 1.5-1.5-1.5 5.25-1.5-5.25z" clip-path="url(#i)" class="B J"/></g><g transform="matrix(1 0 0 -1 -56.898 565.14)" class="C D"><path d="m356.3 420.79 1.5-1.5-1.5 5.25-1.5-5.25z" clip-path="url(#h)" class="G H"/><g class="F"><path d="m343.55 497.04h7.5v-41.25h1.5" clip-path="url(#g)" class="E"/><path d="m350.6 455.79h3.3" clip-path="url(#f)" stroke-width=".427"/></g></g><g transform="matrix(1 0 0 -1 -56.898 565.14)"><path d="M351.7 456.79l2.8-1-2.8-1.05c.4.6.4 1.45 0 2.05z" clip-path="url(#e)" class="B"/><g class="D F"><path d="M351.7 456.79l2.8-1-2.8-1.05c.4.6.4 1.45 0 2.05z" clip-path="url(#d)" stroke-width=".16" class="L"/><path d="m349.35 433.19h3.55" clip-path="url(#c)" stroke-width=".444" class="C"/></g><path d="M350.6 434.29l2.9-1.1-2.9-1.05c.45.6.45 1.5 0 2.15z" clip-path="url(#b)" class="B J"/><g class="D G"><path d="M350.6 434.29l2.9-1.1-2.9-1.05c.45.6.45 1.5 0 2.15z" clip-path="url(#a)" stroke-width=".167" class="L"/><path d="M265.75 567.54c-.2-1.2-.2-12.75-.2-12.75" clip-path="url(#Z)" class="C E"/></g><path d="m265.55 557.79-1.5 1.5 1.5-5.25 1.5 5.25z" clip-path="url(#Y)" class="B J"/><g class="C D"><path d="m265.55 557.79-1.5 1.5 1.5-5.25 1.5 5.25z" clip-path="url(#X)" class="G H"/><path d="M244.7 463.59l11.35-.25" clip-path="url(#W)" class="F V"/></g><path d="m251.1 463.44-2.05-1.95 7 1.85-6.9 2.15z" clip-path="url(#V)" class="B"/><g class="C D F"><path d="m251.1 463.44-2.05-1.95 7 1.85-6.9 2.15z" clip-path="url(#U)" class="W"/><path d="M243.4 422.79l11.35-.2" clip-path="url(#T)" class="V"/></g><path d="m249.8 422.69-2.05-1.95 7 1.85-6.9 2.1z" clip-path="url(#S)" class="B"/><path d="m249.8 422.69-2.05-1.95 7 1.85-6.9 2.1z" clip-path="url(#R)" class="C D F W"/></g><text x="-56.898" y="565.139" font-size="8" xml:space="preserve" class="K"><tspan x="189.102 194.694 199.19" y="7.45">CLK</tspan></text><text x="-56.898" y="565.139" font-size="6.1" xml:space="preserve" class="K"><tspan x="374.702 378.997" y="330.55">CS</tspan></text><path d="M178.25 244.15l19.9.2" stroke-width=".66" class="C D F"/><path d="m191.55 244.3-2.65 2.6 9.25-2.55-9.2-2.7z" class="B"/><path d="m191.55 244.3-2.65 2.6 9.25-2.55-9.2-2.7z" class="C D F U"/><path transform="matrix(1 0 0 -1 -56.898 565.14)" d="M394.35 372.74c0-.35-.1-.7-.3-1a1.58 1.58 0 0 0-.7-.7c-.35-.2-.65-.3-1.05-.3-.35 0-.7.1-1 .3a1.58 1.58 0 0 0-.7.7c-.2.3-.3.65-.3 1s.1.7.3 1a1.47 1.47 0 0 0 .7.75c.3.2.65.25 1 .25.4 0 .7-.05 1.05-.25a1.47 1.47 0 0 0 .7-.75c.2-.3.3-.65.3-1z" clip-path="url(#Q)" class="B R"/><g class="C D"><path d="M62.202 224.75l-29.15.2" stroke-width=".754" class="F"/><path d="M330.75 521.89c.2-1.25 0-9.05 0-9.05" clip-path="url(#P)" transform="matrix(1 0 0 -1 -56.898 565.14)" class="E G"/></g><path transform="matrix(1 0 0 -1 -56.898 565.14)" d="m330.8 515.84-1.45 1.5 1.35-5.25 1.65 5.2z" clip-path="url(#O)" class="B J"/><path transform="matrix(1 0 0 -1 -56.898 565.14)" d="m330.8 515.84-1.45 1.5 1.35-5.25 1.65 5.2z" clip-path="url(#N)" class="C D G H"/><path transform="matrix(1 0 0 -1 -56.898 565.14)" d="m293.95 532.79h-20.9v18.25h41.75v-18.25z" clip-path="url(#CM)" class="B I N"/><text x="-56.898" y="565.139" xml:space="preserve" class="K M"><tspan x="226.202 233.402 240.086" y="27.65">PLL</tspan></text><g transform="matrix(1 0 0 -1 -56.898 565.14)"><path d="m265.55 543.54h6.75" clip-path="url(#M)" stroke-width=".712" class="C D F"/><path d="m269.45 543.54-1.45-1.45 5 1.45-5 1.4z" clip-path="url(#L)" class="B"/><g class="C D F"><path d="m269.45 543.54-1.45-1.45 5 1.45-5 1.4z" clip-path="url(#K)" stroke-width=".379"/><path d="m313.7 545.89h15" clip-path="url(#J)" class="E"/></g><path d="M324.75 547.74l4.9-1.8-4.9-1.85c.8 1.1.8 2.55 0 3.65z" clip-path="url(#I)" class="B"/><g class="D F"><path d="M324.75 547.74l4.9-1.8-4.9-1.85c.8 1.1.8 2.55 0 3.65z" clip-path="url(#H)" class="L Q"/><path d="m313.7 534.64h15" clip-path="url(#G)" class="C E"/></g><path d="M324.75 536.49l4.9-1.8-4.9-1.85c.8 1.1.8 2.55 0 3.65z" clip-path="url(#F)" class="B"/><path d="M324.75 536.49l4.9-1.8-4.9-1.85c.8 1.1.8 2.55 0 3.65z" clip-path="url(#E)" class="D F L Q"/></g><text x="-56.898" y="565.139" font-size="4" xml:space="preserve" class="K"><tspan x="260.602 263.398 265.598 268.198 270.198 272.698 275.098" y="15.55">CLK_SYS</tspan></text><text x="-56.898" y="565.139" font-size="4" xml:space="preserve" class="K"><tspan x="260.902 263.698 265.898 268.498 270.498 273.994 276.894" y="27.45">CLK_MUL</tspan></text><path transform="matrix(1 0 0 -1 -56.898 565.14)" d="m265.55 554.79v-11.25" clip-path="url(#D)" class="C D E F"/><g class="K"><text x="-56.898" y="565.139" font-size="8.9" xml:space="preserve"><tspan x="373.002 379.09 385.979 392.867" y="8.05">ADDR</tspan></text><text x="-56.898" y="565.139" font-size="7.7" xml:space="preserve"><tspan x="283.602 289.501 294.198 297.201 301.898 305.786 311.076 316.674 321.563 325.452 333.052 338.442 340.736 345.433" y="342.45">Data_BUS_WRITE</tspan></text><text x="-56.898" y="565.139" font-size="7.1" xml:space="preserve"><tspan x="394.402 399.898 404.293 407.083 411.478 415.071 419.963 425.153 429.654 433.247 438.146 442.64 447.532" y="342.85">Data_BUS_READ</tspan></text><text x="-56.898" y="565.139" font-size="6.1" xml:space="preserve"><tspan x="399.202 403.497" y="163.05">CS</tspan></text></g><g transform="matrix(1 0 0 -1 -56.898 565.14)"><path d="M460.15 391.84v-42.2l8.9 5.5-.2 30.4z" clip-path="url(#CK)" class="B I N"/><path d="m453.25 362.64h7.45" clip-path="url(#C)" stroke-width=".597" class="C D F"/><path d="m458.3 362.64-1.2-1.2 4.2 1.2-4.2 1.2z" clip-path="url(#B)" class="B"/><path d="m458.3 362.64-1.2-1.2 4.2 1.2-4.2 1.2z" clip-path="url(#A)" stroke-width=".319" class="C D F"/></g><g font-family="ArialMT"><text transform="rotate(90)" x="565.139" y="56.898" font-size="5.2" xml:space="preserve"><tspan x="238.85 243.75 247.55 250.45 254.25" y="-366.902">WR_RD</tspan></text><text x="-56.898" y="565.139" font-size="4.3" xml:space="preserve"><tspan x="372.702 376.796 379.896 381.092 383.59 384.785 387.181" y="244.95">WR = 0 </tspan></text><text x="-56.898" y="565.139" font-size="4.3" xml:space="preserve"><tspan x="372.702 375.803 378.903 380.098 382.597 383.792" y="250.35">RD = 1</tspan></text><text x="-56.898" y="565.139" font-size="2.7" xml:space="preserve"><tspan x="373.102 375.003 376.801 377.598 379.196 379.993 381.494 382.291 383.19 383.986 384.783 386.983 388.484 390.685 391.481 392.278 393.074 394.576 395.372 396.873 397.772 399.274 400.775" y="154.65">CS = 0 -. Mem. Interna </tspan></text><text x="-56.898" y="565.139" font-size="2.7" xml:space="preserve"><tspan x="373.102 375.003 376.801 377.598 379.196 379.993 381.494 382.291 383.19 383.986 386.187 387.688 389.888 390.685 391.481 393.28 394.678 395.475 396.976 397.875 399.376" y="158.05">CS = 1 - Mem. Externa</tspan></text><text transform="rotate(90)" x="565.139" y="56.898" font-size="5.2" xml:space="preserve"><tspan x="325.25 330.15 333.95 336.85 340.65" y="-367.302">WR_RD</tspan></text><text x="-56.898" y="565.139" font-size="5.6" xml:space="preserve"><tspan x="440.702 444.701 446.594 447.792 449.388 452.49 456.192 459.294 462.094" y="31.85">writeBack</tspan></text></g></svg>